# xmcd
#
# Track frame offsets:
#	150
#	79396
#	88575
#	104159
#	110341
#	116744
#	124005
#	135992
#	146355
#	157264
#	167825
#	179330
#	189587
#	200030
#	211235
#	221255
#	231310
#	260769
#	288167
#	338583
#	352251
#
# Disc length: 4756 seconds
#
# Revision: 0
# Processed by: cddbd v1.5.2PL0 Copyright (c) Steve Scherf et al.
# Submitted via: dBpowerAMP V4.0
#
DISCID=49129215
DTITLE=tei - 28day 
DYEAR=1900
DGENRE=Country
TTITLE0=less1
TTITLE1=less2
TTITLE2=less3
TTITLE3=less4
TTITLE4=less5
TTITLE5=less6
TTITLE6=less7
TTITLE7=less8
TTITLE8=less9
TTITLE9=less10
TTITLE10=less11
TTITLE11=less12
TTITLE12=less13
TTITLE13=less14
TTITLE14=less15
TTITLE15=less16
TTITLE16=less17
TTITLE17=less18
TTITLE18=less19
TTITLE19=less20
TTITLE20=less21
EXTD=lesson
EXTT0=
EXTT1=
EXTT2=
EXTT3=
EXTT4=
EXTT5=
EXTT6=
EXTT7=
EXTT8=
EXTT9=
EXTT10=
EXTT11=
EXTT12=
EXTT13=
EXTT14=
EXTT15=
EXTT16=
EXTT17=
EXTT18=
EXTT19=
EXTT20=
PLAYORDER=
